<svg viewBox="0 -7 512 512" xmlns="http://www.w3.org/2000/svg"><path d="m174 45v-25c0-11.046875-8.953125-20-20-20h-80c-11.046875 0-20 8.953125-20 20v25zm0 0" fill="#000000" style="fill: rgb(0, 0, 0);"></path><path d="m45 75c-24.8125 0-45 20.1875-45 45v332c0 24.8125 20.1875 45 45 45h40c13.785156 0 25-11.214844 25-25v-397zm0 0" fill="#000000" style="fill: rgb(0, 0, 0);"></path><path d="m447 75h-307v397c0 13.785156 11.214844 25 25 25h282c35.839844 0 65-29.160156 65-65v-292c0-35.839844-29.160156-65-65-65zm-267 55c0-8.285156 6.714844-15 15-15h60c8.285156 0 15 6.714844 15 15s-6.714844 15-15 15h-60c-8.285156 0-15-6.714844-15-15zm146 327c-71.683594 0-130-58.316406-130-130s58.316406-130 130-130 130 58.316406 130 130-58.316406 130-130 130zm0 0" fill="#000000" style="fill: rgb(0, 0, 0);"></path><path d="m326 287c-22.054688 0-40 17.945312-40 40s17.945312 40 40 40 40-17.945312 40-40-17.945312-40-40-40zm0 0" fill="#000000" style="fill: rgb(0, 0, 0);"></path><path d="m326 227c-55.140625 0-100 44.859375-100 100s44.859375 100 100 100 100-44.859375 100-100-44.859375-100-100-100zm0 170c-38.597656 0-70-31.402344-70-70s31.402344-70 70-70 70 31.402344 70 70-31.402344 70-70 70zm0 0" fill="#000000" style="fill: rgb(0, 0, 0);"></path></svg>
