<svg width="400" height="300" version="1.1" xmlns="http://www.w3.org/2000/svg" desc="Created with imagetracer.js version 1.2.6" ><path fill="rgb(255,141,0)" stroke="rgb(255,141,0)" stroke-width="1" opacity="0.5098039215686274" d="M 126.5 18 L 130 18.5 L 123.5 20 L 123.5 19 L 126.5 18 Z " /><path fill="rgb(255,141,0)" stroke="rgb(255,141,0)" stroke-width="1" opacity="0.5098039215686274" d="M 131 18 L 134 19.5 Q 135.3 26.7 140 30.5 L 139 33 L 141 33.5 L 138 34 L 139 29.5 Q 133.9 26.1 132.5 19 L 124 29.5 L 126 30 L 122.5 35 L 119 36.5 L 112.5 46 L 112 44.5 L 131 18 Z " /><path fill="rgb(255,141,0)" stroke="rgb(255,141,0)" stroke-width="1" opacity="0.5098039215686274" d="M 119.5 20 L 122 20.5 L 114.5 23 L 114.5 22 L 119.5 20 Z " /><path fill="rgb(255,141,0)" stroke="rgb(255,141,0)" stroke-width="1" opacity="0.5098039215686274" d="M 222.5 20 L 226 20.5 L 222.5 21 L 222.5 20 Z " /><path fill="rgb(255,141,0)" stroke="rgb(255,141,0)" stroke-width="1" opacity="0.5098039215686274" d="M 229.5 20 L 238.5 21 L 251 27 L 250 31.5 Q 262.1 36.9 269 47.5 L 271 51.5 L 269 50.5 L 268 47.5 L 259.5 39 L 249 31.5 L 250 28.5 L 238.5 22 L 229.5 21 L 229.5 20 Z " /><path fill="rgb(255,141,0)" stroke="rgb(255,141,0)" stroke-width="1" opacity="0.5098039215686274" d="M 217.5 21 L 221 21.5 L 217.5 22 L 217.5 21 Z " /><path fill="rgb(255,141,0)" stroke="rgb(255,141,0)" stroke-width="1" opacity="0.5098039215686274" d="M 205.5 22 L 216 22.5 L 205.5 23 L 205.5 22 Z " /><path fill="rgb(255,141,0)" stroke="rgb(255,141,0)" stroke-width="1" opacity="0.5098039215686274" d="M 111.5 23 L 113 23.5 Q 103.7 26.7 99 34.5 L 94 42.5 L 93.5 46 L 93 42.5 Q 97.6 32.6 105.5 26 L 111.5 23 Z " /><path fill="rgb(255,141,0)" stroke="rgb(255,141,0)" stroke-width="1" opacity="0.5098039215686274" d="M 194.5 23 L 202 23.5 L 194.5 24 L 194.5 23 Z " /><path fill="rgb(255,141,0)" stroke="rgb(255,141,0)" stroke-width="1" opacity="0.5098039215686274" d="M 186.5 24 L 193 24.5 L 186.5 25 L 186.5 24 Z " /><path fill="rgb(255,141,0)" stroke="rgb(255,141,0)" stroke-width="1" opacity="0.5098039215686274" d="M 179.5 25 L 185 25.5 L 179.5 26 L 179.5 25 Z " /><path fill="rgb(255,141,0)" stroke="rgb(255,141,0)" stroke-width="1" opacity="0.5098039215686274" d="M 170.5 26 L 177 26.5 L 170.5 27 L 170.5 26 Z " /><path fill="rgb(255,141,0)" stroke="rgb(255,141,0)" stroke-width="1" opacity="0.5098039215686274" d="M 165.5 27 L 169 27.5 L 163.5 29 L 163.5 28 L 165.5 27 Z " /><path fill="rgb(255,141,0)" stroke="rgb(255,141,0)" stroke-width="1" opacity="0.5098039215686274" d="M 115.5 29 Q 117.8 28.3 117 30.5 L 109.5 38 L 107.5 38 L 108 36.5 L 113.5 30 L 115.5 29 Z M 113 31 L 113 33 L 115 32 L 113 31 Z M 112 33 L 110 36 L 113 34 L 112 33 Z " /><path fill="rgb(255,141,0)" stroke="rgb(255,141,0)" stroke-width="1" opacity="0.5098039215686274" d="M 160.5 29 L 162 29.5 L 157.5 32 L 158.5 30 L 160.5 29 Z " /><path fill="rgb(255,141,0)" stroke="rgb(255,141,0)" stroke-width="1" opacity="0.5098039215686274" d="M 154.5 32 L 156 32.5 L 148.5 37 L 145.5 37 L 136 41 L 135 54.5 L 133.5 56 L 127.5 56 L 118 53.5 Q 121.7 48.7 129.5 48 L 133.5 50 L 134 43 L 128.5 46 L 125.5 46 L 122.5 45 L 115 51.5 L 117 52.5 L 113 53.5 L 118 55.5 L 112.5 63 L 109 64 L 111.5 68 Q 116 69 117 66.5 L 115 62.5 L 120.5 56 L 119.5 59 L 123.5 59 L 124 57 L 126.5 57 L 137 59 L 136.5 62 L 134.5 60 L 124.5 59 L 123.5 60 L 117 60 L 116 62.5 L 118 67.5 Q 116.6 70.3 112 69 L 114 73.5 L 112 72.5 L 111 68.5 L 104 60.5 L 120.5 45 L 124.5 43 L 128.5 45 L 143 36.5 L 142 34.5 L 143 34.5 L 144.5 37 L 154.5 32 Z M 125 50 L 121 53 L 129 55 L 134 55 L 134 53 Q 132 48 125 50 Z M 113 55 Q 110 57 113 58 L 116 57 Q 117 54 113 55 Z M 109 59 L 106 60 L 108 63 Q 112 63 114 60 L 109 59 Z " /><path fill="rgb(255,141,0)" stroke="rgb(255,141,0)" stroke-width="1" opacity="0.5098039215686274" d="M 128.5 33 L 131.5 34 L 133 33.5 Q 133.8 35.8 131.5 35 L 127.5 37 L 127.5 36 L 131 34.5 L 128.5 34 L 127 34.5 L 128.5 33 Z " /><path fill="rgb(255,141,0)" stroke="rgb(255,141,0)" stroke-width="1" opacity="0.5098039215686274" d="M 125.5 35 L 125.5 38 Q 122.5 36.5 125.5 35 Z " /><path fill="rgb(255,141,0)" stroke="rgb(255,141,0)" stroke-width="1" opacity="0.5098039215686274" d="M 102.5 44 Q 105.1 43.2 104 46.5 L 102.5 49 L 102 47.5 L 103 45.5 L 101 45.5 L 102.5 44 Z " /><path fill="rgb(255,141,0)" stroke="rgb(255,141,0)" stroke-width="1" opacity="0.5098039215686274" d="M 100.5 47 L 102 51.5 L 99 53 L 99.5 51 L 101 51.5 L 100.5 47 Z " /><path fill="rgb(255,141,0)" stroke="rgb(255,141,0)" stroke-width="1" opacity="0.5098039215686274" d="M 111.5 47 L 112 48.5 L 107.5 56 L 101 60.5 L 103 61.5 L 97.5 62 L 93 54.5 L 93 51.5 L 94 51.5 L 94 54.5 L 97 61 L 99.5 61 L 108 55 L 111.5 47 Z " /><path fill="rgb(255,141,0)" stroke="rgb(255,141,0)" stroke-width="1" opacity="0.5098039215686274" d="M 271.5 53 Q 273.8 54.8 273 59.5 L 272 59.5 L 271.5 53 Z " /><path fill="rgb(255,141,0)" stroke="rgb(255,141,0)" stroke-width="1" opacity="0.5098039215686274" d="M 273.5 61 L 274 72.5 L 273 72.5 L 273.5 61 Z " /><path fill="rgb(255,141,0)" stroke="rgb(255,141,0)" stroke-width="1" opacity="0.5098039215686274" d="M 144.5 68 Q 149.9 66.1 149 69.5 L 151 75.5 L 150 75.5 L 147.5 69 L 136.5 70 L 135 71.5 L 130.5 77 L 122 74.5 L 125.5 74 L 130.5 76 L 136.5 69 Q 142.7 70.8 144.5 68 Z " /><path fill="rgb(255,141,0)" stroke="rgb(255,141,0)" stroke-width="1" opacity="0.5098039215686274" d="M 116.5 73 L 121 73.5 L 116.5 74 L 116.5 73 Z " /><path fill="rgb(255,141,0)" stroke="rgb(255,141,0)" stroke-width="1" opacity="0.5098039215686274" d="M 173.5 75 L 176 80.5 L 175 81.5 L 175 94.5 L 181.5 89 L 185 86.5 L 183 81 L 181 80.5 L 184 80 L 185 85 L 193 80.5 L 186 79.5 L 192.5 79 L 195 80 Q 193.9 77.3 196.5 78 L 194.5 81 Q 183.1 87.1 175 96.5 L 174.5 113 L 174 76.5 L 173.5 75 Z " /><path fill="rgb(255,141,0)" stroke="rgb(255,141,0)" stroke-width="1" opacity="0.5098039215686274" d="M 272.5 75 L 273 77.5 L 268 81 L 266.5 84 L 259 89.5 L 261 90.5 L 256.5 91 L 255.5 90 L 247 89.5 L 259.5 84 L 259.5 85 L 251 88.5 L 258.5 89 L 265 83.5 L 264.5 82 L 265.5 83 L 268.5 80 L 272 77.5 L 272.5 75 Z " /><path fill="rgb(255,141,0)" stroke="rgb(255,141,0)" stroke-width="1" opacity="0.5098039215686274" d="M 151.5 77 L 153 83.5 L 152 83.5 L 151.5 77 Z " /><path fill="rgb(255,141,0)" stroke="rgb(255,141,0)" stroke-width="1" opacity="0.5098039215686274" d="M 166.5 77 L 168 77.5 L 164.5 79 L 164.5 78 L 166.5 77 Z " /><path fill="rgb(255,141,0)" stroke="rgb(255,141,0)" stroke-width="1" opacity="0.5098039215686274" d="M 153.5 85 Q 156 86 155 90.5 L 154 90.5 L 153.5 85 Z " /><path fill="rgb(255,141,0)" stroke="rgb(255,141,0)" stroke-width="1" opacity="0.5098039215686274" d="M 288.5 89 L 291 90.5 L 291 92.5 Q 291.8 96.3 289.5 97 L 275.5 104 L 266.5 104 L 266.5 103 L 278.5 102 Q 285.8 99.8 290 94.5 Q 290.8 92.3 288.5 93 L 287.5 91 L 290 90.5 L 288.5 89 Z " /><path fill="rgb(255,141,0)" stroke="rgb(255,141,0)" stroke-width="1" opacity="0.5098039215686274" d="M 111.5 90 Q 117.8 88.8 119 92.5 L 120 96 L 123 96.5 L 120.5 97 L 116.5 91 Q 110.4 89.8 111 92.5 L 109.5 96 L 109 93.5 L 111.5 90 Z " /><path fill="rgb(255,141,0)" stroke="rgb(255,141,0)" stroke-width="1" opacity="0.5098039215686274" d="M 273.5 90 L 284 90.5 L 273.5 91 L 273.5 90 Z " /><path fill="rgb(255,141,0)" stroke="rgb(255,141,0)" stroke-width="1" opacity="0.5098039215686274" d="M 265.5 91 L 269 91.5 L 265.5 92 L 265.5 91 Z " /><path fill="rgb(255,141,0)" stroke="rgb(255,141,0)" stroke-width="1" opacity="0.5098039215686274" d="M 155.5 92 L 156 96.5 L 155 96.5 L 155.5 92 Z " /><path fill="rgb(255,141,0)" stroke="rgb(255,141,0)" stroke-width="1" opacity="0.5098039215686274" d="M 241.5 92 L 241 93.5 Q 241.8 96.1 238.5 95 L 239.5 93 L 241.5 92 Z " /><path fill="rgb(255,141,0)" stroke="rgb(255,141,0)" stroke-width="1" opacity="0.5098039215686274" d="M 232.5 96 L 231.5 98 L 213 106 L 211.5 113 L 211 109.5 L 212 107.5 L 210.5 108 Q 195.1 111.6 187 122.5 Q 188.7 130.3 193.5 135 L 197 135.5 L 193 136.5 Q 197.1 141.4 198 149.5 L 197 149.5 L 195 141.5 L 186 122.5 L 199.5 111 Q 217.8 105.3 232.5 96 Z " /><path fill="rgb(255,141,0)" stroke="rgb(255,141,0)" stroke-width="1" opacity="0.5098039215686274" d="M 110.5 97 L 112 99.5 L 111 99.5 L 110.5 97 Z " /><path fill="rgb(255,141,0)" stroke="rgb(255,141,0)" stroke-width="1" opacity="0.5098039215686274" d="M 124.5 97 L 128 97.5 L 124.5 98 L 124.5 97 Z " /><path fill="rgb(255,141,0)" stroke="rgb(255,141,0)" stroke-width="1" opacity="0.5098039215686274" d="M 130.5 98 Q 136.6 97.2 139 99 L 140 103.5 L 138 107.5 L 138.5 109 L 136 108.5 L 139 101.5 Q 137.5 97.5 130.5 99 L 130.5 98 Z " /><path fill="rgb(255,141,0)" stroke="rgb(255,141,0)" stroke-width="1" opacity="0.5098039215686274" d="M 156.5 98 L 157 105.5 L 149.5 114 L 149.5 111 L 153 109.5 Q 157.3 107 156 100 L 141 108.5 L 148 110.5 L 144.5 111 L 140 110 L 141.5 107 L 156.5 98 Z " /><path fill="rgb(255,141,0)" stroke="rgb(255,141,0)" stroke-width="1" opacity="0.5098039215686274" d="M 251 98 L 259 101.5 L 255 102 L 255 106.5 L 251.5 115 L 251 113.5 Q 254.9 109.4 254 100.5 L 252 99.5 L 231 131.5 L 233 132.5 L 225.5 133 L 225.5 132 Q 230.9 133.9 230 130.5 L 239 119.5 L 240 115.5 L 251 100.5 L 251 98 Z " /><path fill="rgb(255,141,0)" stroke="rgb(255,141,0)" stroke-width="1" opacity="0.5098039215686274" d="M 116.5 101 L 122 104.5 L 120.5 105 L 117 103 L 117 116.5 L 115.5 118 Q 108.5 119.5 109 116.5 L 111 114.5 L 111.5 102 L 112 114.5 L 110.5 117 L 116 117 L 116.5 101 Z " /><path fill="rgb(255,141,0)" stroke="rgb(255,141,0)" stroke-width="1" opacity="0.5098039215686274" d="M 193.5 102 L 202 107.5 L 200.5 107 Q 194.3 105.6 193.5 102 Z " /><path fill="rgb(255,141,0)" stroke="rgb(255,141,0)" stroke-width="1" opacity="0.5098039215686274" d="M 263 102 L 265 102.5 L 264 106 Q 261 105 262 108 L 259.5 108 L 257.5 112 L 257 109.5 L 263 104.5 L 263 102 Z " /><path fill="rgb(255,141,0)" stroke="rgb(255,141,0)" stroke-width="1" opacity="0.5098039215686274" d="M 123.5 105 Q 125.8 104.3 125 106.5 L 123.5 114 L 123 107.5 L 123.5 105 Z " /><path fill="rgb(255,141,0)" stroke="rgb(255,141,0)" stroke-width="1" opacity="0.5098039215686274" d="M 90.5 113 Q 96.8 111.8 98 115.5 L 99.5 118 L 107 120.5 L 104.5 121 L 97 116.5 L 95.5 114 Q 89.8 112.7 88.5 116 L 90.5 113 Z " /><path fill="rgb(255,141,0)" stroke="rgb(255,141,0)" stroke-width="1" opacity="0.5098039215686274" d="M 256.5 113 L 257 114.5 L 255.5 117 L 255 115.5 L 256.5 113 Z " /><path fill="rgb(255,141,0)" stroke="rgb(255,141,0)" stroke-width="1" opacity="0.5098039215686274" d="M 173.5 114 L 174 116 L 161 125.5 L 165 126 L 169 137.5 L 168 137.5 L 166.5 135 L 155 134.5 L 166 134 L 164 127 L 158.5 127 L 152.5 132 L 155.5 128 L 173.5 114 Z " /><path fill="rgb(255,141,0)" stroke="rgb(255,141,0)" stroke-width="1" opacity="0.5098039215686274" d="M 210.5 114 L 211 116.5 L 209.5 121 L 209 117.5 L 210.5 114 Z " /><path fill="rgb(255,141,0)" stroke="rgb(255,141,0)" stroke-width="1" opacity="0.5098039215686274" d="M 122.5 115 L 123 116.5 Q 119.3 122.8 108.5 122 L 108.5 121 Q 118.6 122.1 122 116.5 L 122.5 115 Z " /><path fill="rgb(255,141,0)" stroke="rgb(255,141,0)" stroke-width="1" opacity="0.5098039215686274" d="M 129.5 115 L 131 115.5 L 129 116 L 128 121.5 L 128.5 123 Q 126.3 123.8 127 121.5 L 122.5 125 L 121 124.5 L 127 119.5 L 129.5 115 Z " /><path fill="rgb(255,141,0)" stroke="rgb(255,141,0)" stroke-width="1" opacity="0.5098039215686274" d="M 132.5 115 L 147 116.5 L 122 134.5 Q 122.7 140.3 126.5 143 L 129.5 143 L 148.5 133 L 147.5 135 L 138 140.5 L 123.5 173 L 123 171.5 L 128 161.5 L 123 160.5 L 129 160 L 133 149 L 129 147 L 128.5 150 L 127.5 147 L 116.5 154 L 116.5 153 Q 123.3 150.8 127 145.5 L 125 142.5 L 119.5 135 L 113.5 137 L 113.5 136 L 122.5 133 L 135 124.5 L 130 122.5 L 131.5 122 L 135.5 123 L 142 117.5 L 132.5 116 L 132.5 115 Z M 137 140 L 131 143 L 128 147 L 130 146 L 134 148 L 137 142 L 137 140 Z " /><path fill="rgb(255,141,0)" stroke="rgb(255,141,0)" stroke-width="1" opacity="0.5098039215686274" d="M 250.5 116 L 251 118.5 L 248.5 124 L 248 122.5 L 250.5 116 Z " /><path fill="rgb(255,141,0)" stroke="rgb(255,141,0)" stroke-width="1" opacity="0.5098039215686274" d="M 254.5 118 L 255 120.5 L 253.5 123 L 253 121.5 L 254.5 118 Z " /><path fill="rgb(255,141,0)" stroke="rgb(255,141,0)" stroke-width="1" opacity="0.5098039215686274" d="M 89.5 121 L 90 124.5 L 89 124.5 L 89.5 121 Z " /><path fill="rgb(255,141,0)" stroke="rgb(255,141,0)" stroke-width="1" opacity="0.5098039215686274" d="M 208.5 122 L 209 124.5 L 207.5 129 L 207 125.5 L 208.5 122 Z " /><path fill="rgb(255,141,0)" stroke="rgb(255,141,0)" stroke-width="1" opacity="0.5098039215686274" d="M 252.5 124 L 253 125.5 L 252 128.5 Q 254.8 129.3 254 133.5 L 253 133.5 L 253 130.5 Q 250 131.5 251 126.5 L 252.5 124 Z " /><path fill="rgb(255,141,0)" stroke="rgb(255,141,0)" stroke-width="1" opacity="0.5098039215686274" d="M 117.5 125 L 120 125.5 L 111.5 128 L 107.5 132 L 109 129.5 Q 108.3 127.3 110.5 128 L 117.5 125 Z " /><path fill="rgb(255,141,0)" stroke="rgb(255,141,0)" stroke-width="1" opacity="0.5098039215686274" d="M 247.5 125 L 248 126.5 L 246.5 129 L 246 127.5 L 247.5 125 Z " /><path fill="rgb(255,141,0)" stroke="rgb(255,141,0)" stroke-width="1" opacity="0.5098039215686274" d="M 88.5 126 L 89 128.5 L 88 128.5 L 88.5 126 Z " /><path fill="rgb(255,141,0)" stroke="rgb(255,141,0)" stroke-width="1" opacity="0.5098039215686274" d="M 94.5 126 L 96 126.5 L 93.5 128 L 94.5 126 Z " /><path fill="rgb(255,141,0)" stroke="rgb(255,141,0)" stroke-width="1" opacity="0.5098039215686274" d="M 97.5 127 L 101 129.5 L 100.5 136 L 100 129 L 97.5 127 Z " /><path fill="rgb(255,141,0)" stroke="rgb(255,141,0)" stroke-width="1" opacity="0.5098039215686274" d="M 92.5 129 L 93 142.5 Q 91.8 145.3 86.5 144 L 85 141.5 L 87.5 140 L 86.5 143 L 92 143 L 92.5 129 Z " /><path fill="rgb(255,141,0)" stroke="rgb(255,141,0)" stroke-width="1" opacity="0.5098039215686274" d="M 193.5 129 L 201 129.5 L 193.5 130 L 193.5 129 Z " /><path fill="rgb(255,141,0)" stroke="rgb(255,141,0)" stroke-width="1" opacity="0.5098039215686274" d="M 203.5 130 L 224 131.5 L 214.5 132 L 213.5 131 L 203.5 131 L 203.5 130 Z " /><path fill="rgb(255,141,0)" stroke="rgb(255,141,0)" stroke-width="1" opacity="0.5098039215686274" d="M 243.5 131 L 243 132.5 L 242.5 134 L 235.5 134 L 235.5 133 Q 242 134.5 243.5 131 Z " /><path fill="rgb(255,141,0)" stroke="rgb(255,141,0)" stroke-width="1" opacity="0.5098039215686274" d="M 107.5 133 L 108 136 L 112 137.5 L 110.5 138 L 106.5 137 L 101 143.5 L 101 147 L 103 147.5 L 100 148 Q 99.2 142.5 102 139.5 L 101 137.5 L 102 137.5 Q 101.3 139.8 103.5 139 L 107.5 133 Z " /><path fill="rgb(255,141,0)" stroke="rgb(255,141,0)" stroke-width="1" opacity="0.5098039215686274" d="M 250.5 134 L 252 134.5 L 250 135 L 249 138.5 L 257.5 151 L 260.5 149 L 260.5 150 L 256 152 L 248 137.5 L 250.5 134 Z " /><path fill="rgb(255,141,0)" stroke="rgb(255,141,0)" stroke-width="1" opacity="0.5098039215686274" d="M 152.5 135 L 154 135.5 L 152 136 L 151 142.5 L 169.5 165 L 172 156 Q 175.8 157.5 175 154.5 L 176 154.5 L 187 178 L 197.5 177 L 203 175 L 201 166.5 L 202 166.5 L 206 180.5 L 205 180.5 L 204 176 L 188 179.5 Q 191.5 184 192 191.5 Q 190.5 194.5 189 191.5 L 150 142.5 L 150 138.5 L 152.5 135 Z M 173 157 L 171 161 L 172 167 L 174 168 L 172 169 L 174 169 L 184 184 L 190 188 L 188 181 L 176 159 Q 177 156 173 157 Z M 190 189 L 191 191 Q 192 188 190 189 Z " /><path fill="rgb(255,141,0)" stroke="rgb(255,141,0)" stroke-width="1" opacity="0.5098039215686274" d="M 199.5 136 L 232 138.5 L 227 139.5 L 233.5 147 L 237.5 150 L 241 140 L 234 139.5 L 240.5 139 L 242 141.5 L 236 157.5 L 232 163.5 L 231 171.5 L 225.5 186 L 225 184 L 222 185.5 L 221 191.5 L 223 194.5 L 217 211.5 L 211.5 221 L 206 218 Q 204.8 215 208.5 216 L 208.5 218 L 211.5 220 L 213 216 L 210 215.5 L 216 211.5 L 215 206.5 L 216 206.5 L 216.5 209 L 222 194.5 Q 219.4 193.1 220 188.5 L 222 183 L 225 182.5 L 223 182 L 224 174.5 L 227.5 165 L 229.5 169 L 237 150 L 235.5 150 L 226 140.5 Q 226.6 137.8 220.5 139 L 219.5 138 Q 209.2 139.2 204 137 L 203.5 139 L 203 137 Q 198.6 138 199.5 136 Z M 227 169 L 224 180 L 226 182 L 229 173 L 229 171 Q 230 168 227 169 Z " /><path fill="rgb(255,141,0)" stroke="rgb(255,141,0)" stroke-width="1" opacity="0.5098039215686274" d="M 169.5 139 L 171 142.5 L 170 142.5 L 169.5 139 Z " /><path fill="rgb(255,141,0)" stroke="rgb(255,141,0)" stroke-width="1" opacity="0.5098039215686274" d="M 202.5 140 Q 202.3 146.7 206.5 149 L 219.5 159 L 222.5 159 L 227 163.5 L 222.5 160 L 220.5 160 L 216 164.5 L 215.5 166 L 215 164.5 L 219 159 L 203 146.5 L 202.5 140 Z " /><path fill="rgb(255,141,0)" stroke="rgb(255,141,0)" stroke-width="1" opacity="0.5098039215686274" d="M 171.5 144 L 175 152.5 L 174 152.5 L 171.5 144 Z " /><path fill="rgb(255,141,0)" stroke="rgb(255,141,0)" stroke-width="1" opacity="0.5098039215686274" d="M 246.5 145 L 250 147.5 L 254 156.5 L 253 156.5 L 247.5 146 L 245 147.5 L 242.5 156 L 242 153.5 L 244 147.5 L 246.5 145 Z " /><path fill="rgb(255,141,0)" stroke="rgb(255,141,0)" stroke-width="1" opacity="0.5098039215686274" d="M 262.5 149 L 263 151.5 L 261 152.5 L 262.5 149 Z " /><path fill="rgb(255,141,0)" stroke="rgb(255,141,0)" stroke-width="1" opacity="0.5098039215686274" d="M 106.5 150 L 107.5 152 Q 104.7 152.7 106.5 150 Z " /><path fill="rgb(255,141,0)" stroke="rgb(255,141,0)" stroke-width="1" opacity="0.5098039215686274" d="M 127.5 151 L 128 154 L 122 153.5 L 127 153 L 127.5 151 Z " /><path fill="rgb(255,141,0)" stroke="rgb(255,141,0)" stroke-width="1" opacity="0.5098039215686274" d="M 198.5 151 L 199 155.5 L 198 155.5 L 198.5 151 Z " /><path fill="rgb(255,141,0)" stroke="rgb(255,141,0)" stroke-width="1" opacity="0.5098039215686274" d="M 96.5 152 L 101 152.5 L 93.5 154 L 93.5 153 L 96.5 152 Z " /><path fill="rgb(255,141,0)" stroke="rgb(255,141,0)" stroke-width="1" opacity="0.5098039215686274" d="M 111.5 153 L 114 154.5 L 112.5 154 L 111.5 153 Z " /><path fill="rgb(255,141,0)" stroke="rgb(255,141,0)" stroke-width="1" opacity="0.5098039215686274" d="M 141 153 L 142.5 153 L 155 165.5 L 157 168.5 L 169 180.5 L 169 182 Q 171.7 180.9 171 183.5 L 185.5 198 L 187.5 196 L 192 194 Q 193.3 197 189.5 196 L 186 198.5 Q 187.7 204.3 184 203 L 183 200.5 L 185 200 L 185 198 Q 182.3 199.1 183 196.5 L 168 181.5 L 168 180 Q 165.3 181.1 166 178.5 L 154 167.5 Q 163 176 167 189.5 L 166 189.5 Q 160.8 173.2 148.5 164 L 141.5 159 L 139 159 L 138 162.5 L 155 177.5 L 160 186.5 L 158 185.5 Q 153.8 174.2 144.5 168 L 138.5 164 L 136 164 L 128.5 179 L 129 177.5 L 141 153 Z M 143 154 L 140 158 L 154 167 L 151 164 Q 152 161 149 162 L 143 154 Z " /><path fill="rgb(255,141,0)" stroke="rgb(255,141,0)" stroke-width="1" opacity="0.5098039215686274" d="M 261.5 154 L 268 158 Q 265.9 163.2 270.5 162 L 270.5 163 Q 265.3 164.8 267 159.5 L 261.5 154 Z " /><path fill="rgb(255,141,0)" stroke="rgb(255,141,0)" stroke-width="1" opacity="0.5098039215686274" d="M 84.5 156 L 86 156.5 Q 71.8 162.3 63 173.5 L 54.5 190 L 54 188.5 Q 59.2 172.7 71.5 164 L 84.5 156 Z " /><path fill="rgb(255,141,0)" stroke="rgb(255,141,0)" stroke-width="1" opacity="0.5098039215686274" d="M 102.5 157 L 119 157.5 L 102.5 158 L 102.5 157 Z " /><path fill="rgb(255,141,0)" stroke="rgb(255,141,0)" stroke-width="1" opacity="0.5098039215686274" d="M 241 157 Q 243.7 155.9 243 158.5 L 250.5 171 L 258 166.5 L 254 158.5 L 255 158.5 L 261 172 Q 258.3 173.1 259 170.5 L 258 168 L 250.5 172 L 243 159 Q 240 160 241 157 Z " /><path fill="rgb(255,141,0)" stroke="rgb(255,141,0)" stroke-width="1" opacity="0.5098039215686274" d="M 97.5 158 L 101 158.5 L 97.5 159 L 97.5 158 Z " /><path fill="rgb(255,141,0)" stroke="rgb(255,141,0)" stroke-width="1" opacity="0.5098039215686274" d="M 120.5 158 L 123 158.5 L 120.5 159 L 120.5 158 Z " /><path fill="rgb(255,141,0)" stroke="rgb(255,141,0)" stroke-width="1" opacity="0.5098039215686274" d="M 199.5 158 L 201 164.5 L 200 164.5 L 199.5 158 Z " /><path fill="rgb(255,141,0)" stroke="rgb(255,141,0)" stroke-width="1" opacity="0.5098039215686274" d="M 93.5 159 L 96 159.5 L 91.5 161 L 91.5 160 L 93.5 159 Z " /><path fill="rgb(255,141,0)" stroke="rgb(255,141,0)" stroke-width="1" opacity="0.5098039215686274" d="M 277.5 160 L 295 160.5 L 277.5 161 L 277.5 160 Z " /><path fill="rgb(255,141,0)" stroke="rgb(255,141,0)" stroke-width="1" opacity="0.5098039215686274" d="M 88.5 161 L 90 161.5 Q 76.3 166.8 68 177.5 Q 62.7 183.7 60.5 193 L 60 190.5 Q 65.3 176.3 76.5 168 L 88.5 161 Z " /><path fill="rgb(255,141,0)" stroke="rgb(255,141,0)" stroke-width="1" opacity="0.5098039215686274" d="M 240.5 161 L 241 163.5 L 238 173 L 236 172.5 L 238 170.5 L 240.5 161 Z " /><path fill="rgb(255,141,0)" stroke="rgb(255,141,0)" stroke-width="1" opacity="0.5098039215686274" d="M 272.5 161 L 276 161.5 L 272.5 162 L 272.5 161 Z " /><path fill="rgb(255,141,0)" stroke="rgb(255,141,0)" stroke-width="1" opacity="0.5098039215686274" d="M 297.5 161 L 301 161.5 L 297.5 162 L 297.5 161 Z " /><path fill="rgb(255,141,0)" stroke="rgb(255,141,0)" stroke-width="1" opacity="0.5098039215686274" d="M 302.5 162 L 307 163.5 L 305.5 164 L 302.5 163 L 302.5 162 Z " /><path fill="rgb(255,141,0)" stroke="rgb(255,141,0)" stroke-width="1" opacity="0.5098039215686274" d="M 265.5 164 L 268.5 168 L 277.5 165 L 282.5 165 L 282.5 166 Q 273.6 165.6 269 169.5 L 270 174.5 L 290.5 207 Q 298.4 206.1 300 211.5 L 299.5 214 L 296.5 209 L 289.5 208 L 284.5 212 L 282 208.5 Q 287.4 209.4 289 206.5 L 269 174.5 L 268 169.5 L 265 166.5 L 265.5 164 Z M 284 209 L 284 211 L 286 210 L 284 209 Z " /><path fill="rgb(255,141,0)" stroke="rgb(255,141,0)" stroke-width="1" opacity="0.5098039215686274" d="M 287.5 164 L 291 164.5 L 287.5 165 L 287.5 164 Z " /><path fill="rgb(255,141,0)" stroke="rgb(255,141,0)" stroke-width="1" opacity="0.5098039215686274" d="M 294.5 165 L 301 166.5 L 298.5 167 L 294.5 166 L 294.5 165 Z " /><path fill="rgb(255,141,0)" stroke="rgb(255,141,0)" stroke-width="1" opacity="0.5098039215686274" d="M 311.5 165 L 318.5 168 L 331 177 L 331 179 Q 333.7 177.9 333 180.5 Q 343.8 190.2 347 207.5 L 346 207.5 Q 341.1 184.4 324.5 173 L 311.5 166 L 311.5 165 Z " /><path fill="rgb(255,141,0)" stroke="rgb(255,141,0)" stroke-width="1" opacity="0.5098039215686274" d="M 214.5 167 L 215 168.5 L 209.5 183 L 209 180.5 L 214.5 167 Z " /><path fill="rgb(255,141,0)" stroke="rgb(255,141,0)" stroke-width="1" opacity="0.5098039215686274" d="M 305.5 168 L 311 170.5 L 309.5 171 L 305.5 169 L 305.5 168 Z " /><path fill="rgb(255,141,0)" stroke="rgb(255,141,0)" stroke-width="1" opacity="0.5098039215686274" d="M 312.5 171 Q 324.2 176.8 332 186.5 L 340 202.5 L 339 202.5 L 335 192.5 L 323.5 179 L 313.5 173 L 312.5 171 Z " /><path fill="rgb(255,141,0)" stroke="rgb(255,141,0)" stroke-width="1" opacity="0.5098039215686274" d="M 258.5 173 L 260 173.5 L 254 177.5 Q 259.2 189.3 268.5 197 L 271.5 199 L 272 197.5 L 269 191.5 L 270 191.5 L 273 198.5 L 272 200.5 L 274 200.5 L 273 202.5 L 275 202.5 L 276 204.5 L 275.5 207 L 269.5 198 L 264 202.5 L 268 197.5 L 254.5 182 Q 252.6 185.6 246.5 185 L 243 188.5 L 244 191.5 L 241 190.5 L 236.5 199 L 236 197.5 Q 241.6 184.6 252.5 177 L 258.5 173 Z M 253 179 L 249 182 L 248 184 Q 252 184 254 181 Q 255 178 253 179 Z " /><path fill="rgb(255,141,0)" stroke="rgb(255,141,0)" stroke-width="1" opacity="0.5098039215686274" d="M 261.5 173 L 265 180.5 L 264 180.5 L 261.5 173 Z " /><path fill="rgb(255,141,0)" stroke="rgb(255,141,0)" stroke-width="1" opacity="0.5098039215686274" d="M 122.5 174 L 123 175.5 L 119.5 182 L 119 180.5 L 122.5 174 Z " /><path fill="rgb(255,141,0)" stroke="rgb(255,141,0)" stroke-width="1" opacity="0.5098039215686274" d="M 265.5 174 L 286 205.5 L 283 203.5 L 276.5 193 L 276 194.5 L 281 204.5 L 280 204.5 L 273 190.5 L 275 190.5 L 273.5 188 L 272 188.5 L 270 184.5 L 270.5 183 Q 268.3 183.8 269 181.5 L 265.5 174 Z " /><path fill="rgb(255,141,0)" stroke="rgb(255,141,0)" stroke-width="1" opacity="0.5098039215686274" d="M 234.5 177 L 239 183.5 L 231.5 195 L 231 193.5 L 238 182.5 L 234.5 178 L 232.5 184 L 232 181.5 L 234.5 177 Z " /><path fill="rgb(255,141,0)" stroke="rgb(255,141,0)" stroke-width="1" opacity="0.5098039215686274" d="M 127.5 180 L 128 181.5 L 115 204.5 L 114 212 L 106 212 L 106 206 L 109 204.5 L 111.5 199 L 112 200.5 L 107 207.5 L 107 211 L 113 211 L 113 207.5 L 127.5 180 Z " /><path fill="rgb(255,141,0)" stroke="rgb(255,141,0)" stroke-width="1" opacity="0.5098039215686274" d="M 206.5 182 L 207 184 Q 210.3 182.7 209 187.5 L 207 186.5 L 206.5 182 Z " /><path fill="rgb(255,141,0)" stroke="rgb(255,141,0)" stroke-width="1" opacity="0.5098039215686274" d="M 265.5 182 L 269 189.5 L 268 189.5 L 265.5 182 Z " /><path fill="rgb(255,141,0)" stroke="rgb(255,141,0)" stroke-width="1" opacity="0.5098039215686274" d="M 118.5 183 L 119 184.5 L 115.5 191 L 115 189.5 L 118.5 183 Z " /><path fill="rgb(255,141,0)" stroke="rgb(255,141,0)" stroke-width="1" opacity="0.5098039215686274" d="M 231.5 185 L 232 187.5 L 229.5 194 L 229 191.5 L 231.5 185 Z " /><path fill="rgb(255,141,0)" stroke="rgb(255,141,0)" stroke-width="1" opacity="0.5098039215686274" d="M 53.5 191 L 54 193.5 L 53 193.5 L 53.5 191 Z " /><path fill="rgb(255,141,0)" stroke="rgb(255,141,0)" stroke-width="1" opacity="0.5098039215686274" d="M 167.5 191 L 169 197.5 L 168 197.5 L 167.5 191 Z " /><path fill="rgb(255,141,0)" stroke="rgb(255,141,0)" stroke-width="1" opacity="0.5098039215686274" d="M 114.5 192 L 115 193.5 L 112.5 198 L 112 196.5 L 114.5 192 Z " /><path fill="rgb(255,141,0)" stroke="rgb(255,141,0)" stroke-width="1" opacity="0.5098039215686274" d="M 219.5 193 L 220 194.5 L 218.5 197 L 218 195.5 L 219.5 193 Z " /><path fill="rgb(255,141,0)" stroke="rgb(255,141,0)" stroke-width="1" opacity="0.5098039215686274" d="M 244.5 193 L 245.5 195 L 244.5 193 Z " /><path fill="rgb(255,141,0)" stroke="rgb(255,141,0)" stroke-width="1" opacity="0.5098039215686274" d="M 59.5 194 L 60 200.5 L 59 200.5 L 59.5 194 Z " /><path fill="rgb(255,141,0)" stroke="rgb(255,141,0)" stroke-width="1" opacity="0.5098039215686274" d="M 162.5 194 L 164 200.5 L 163 200.5 L 162.5 194 Z " /><path fill="rgb(255,141,0)" stroke="rgb(255,141,0)" stroke-width="1" opacity="0.5098039215686274" d="M 210.5 194 L 211 196 L 215 196.5 L 213 197.5 L 214 200.5 L 213 200.5 L 212.5 198 L 211 198.5 L 210.5 194 Z " /><path fill="rgb(255,141,0)" stroke="rgb(255,141,0)" stroke-width="1" opacity="0.5098039215686274" d="M 52.5 195 L 53 212.5 L 59 227.5 L 57 226.5 L 52 212.5 L 52.5 195 Z " /><path fill="rgb(255,141,0)" stroke="rgb(255,141,0)" stroke-width="1" opacity="0.5098039215686274" d="M 228.5 195 L 229.5 198 L 230.5 196 L 231 197.5 L 228 207 Q 223.9 208.7 225 204.5 L 228.5 195 Z M 229 198 L 228 201 L 229 201 L 229 198 Z M 228 201 L 227 204 L 228 204 L 228 201 Z " /><path fill="rgb(255,141,0)" stroke="rgb(255,141,0)" stroke-width="1" opacity="0.5098039215686274" d="M 246.5 196 L 249 200.5 L 248 200.5 L 246.5 196 Z " /><path fill="rgb(255,141,0)" stroke="rgb(255,141,0)" stroke-width="1" opacity="0.5098039215686274" d="M 169.5 200 L 170.5 207 Q 173.5 203.1 180 204 Q 178.5 200.3 181.5 201 L 181 202.5 L 179.5 205 Q 172.7 204.2 170.5 208 Q 167.1 206.1 169.5 200 Z " /><path fill="rgb(255,141,0)" stroke="rgb(255,141,0)" stroke-width="1" opacity="0.5098039215686274" d="M 235.5 200 L 236 202.5 L 235 206 L 246.5 206 L 249 203.5 L 249.5 202 L 250 203.5 L 246.5 207 L 235 207 L 233.5 212 L 233 207.5 L 235.5 200 Z " /><path fill="rgb(255,141,0)" stroke="rgb(255,141,0)" stroke-width="1" opacity="0.5098039215686274" d="M 214.5 202 L 215 204.5 L 214 204.5 L 214.5 202 Z " /><path fill="rgb(255,141,0)" stroke="rgb(255,141,0)" stroke-width="1" opacity="0.5098039215686274" d="M 164.5 203 L 165 208 L 167 208.5 L 164 209 L 164.5 203 Z " /><path fill="rgb(255,141,0)" stroke="rgb(255,141,0)" stroke-width="1" opacity="0.5098039215686274" d="M 340.5 204 L 341 206.5 L 340 206.5 L 340.5 204 Z " /><path fill="rgb(255,141,0)" stroke="rgb(255,141,0)" stroke-width="1" opacity="0.5098039215686274" d="M 224.5 208 L 227 209 L 227 225.5 L 225.5 226 L 221 224.5 L 224.5 224 L 226 224.5 L 226 210.5 L 224.5 209 L 223.5 211 L 223 209.5 L 224.5 208 Z " /><path fill="rgb(255,141,0)" stroke="rgb(255,141,0)" stroke-width="1" opacity="0.5098039215686274" d="M 341.5 208 L 342 224.5 L 341 224.5 L 341.5 208 Z " /><path fill="rgb(255,141,0)" stroke="rgb(255,141,0)" stroke-width="1" opacity="0.5098039215686274" d="M 59.5 209 L 60 213.5 L 59 213.5 L 59.5 209 Z " /><path fill="rgb(255,141,0)" stroke="rgb(255,141,0)" stroke-width="1" opacity="0.5098039215686274" d="M 162.5 209 L 162 210.5 L 161 214.5 L 163.5 218 L 169 220.5 L 167.5 221 L 163 219 L 157.5 231 L 156.5 230 L 126 229.5 L 157.5 229 L 159 227.5 L 163 218.5 L 160 213.5 L 162.5 209 Z " /><path fill="rgb(255,141,0)" stroke="rgb(255,141,0)" stroke-width="1" opacity="0.5098039215686274" d="M 239.5 209 L 245 209.5 L 234 218.5 L 236.5 219 Q 238 216.5 243.5 218 L 243.5 219 L 234 220 L 234.5 223 L 249.5 223 L 252.5 222 L 252.5 223 L 250 223.5 L 253 224.5 L 242.5 225 L 241.5 224 L 233 224 Q 231.3 221.6 232 215.5 L 233 215.5 L 233.5 218 L 243 210.5 Q 238.6 210.9 239.5 209 Z " /><path fill="rgb(255,141,0)" stroke="rgb(255,141,0)" stroke-width="1" opacity="0.5098039215686274" d="M 274 209 Q 277.8 208 279 210.5 L 282 217.5 L 281 217.5 Q 281.9 214.5 277.5 216 L 277.5 215 Q 280.1 215.7 279 213 L 272.5 214 L 274 211.5 L 274 209 Z M 275 210 Q 274 213 278 212 Q 279 209 275 210 Z " /><path fill="rgb(255,141,0)" stroke="rgb(255,141,0)" stroke-width="1" opacity="0.5098039215686274" d="M 347.5 209 L 348 224.5 L 347 224.5 L 347.5 209 Z " /><path fill="rgb(255,141,0)" stroke="rgb(255,141,0)" stroke-width="1" opacity="0.5098039215686274" d="M 222.5 212 L 223 214.5 L 221.5 217 L 221 215.5 L 222.5 212 Z " /><path fill="rgb(255,141,0)" stroke="rgb(255,141,0)" stroke-width="1" opacity="0.5098039215686274" d="M 264.5 214 L 268 214.5 L 264.5 215 L 264.5 214 Z " /><path fill="rgb(255,141,0)" stroke="rgb(255,141,0)" stroke-width="1" opacity="0.5098039215686274" d="M 258.5 215 L 263 215.5 L 258.5 216 L 258.5 215 Z " /><path fill="rgb(255,141,0)" stroke="rgb(255,141,0)" stroke-width="1" opacity="0.5098039215686274" d="M 253.5 216 L 257 216.5 L 253.5 217 L 253.5 216 Z " /><path fill="rgb(255,141,0)" stroke="rgb(255,141,0)" stroke-width="1" opacity="0.5098039215686274" d="M 273.5 216 L 276 216.5 L 273.5 217 L 273.5 216 Z " /><path fill="rgb(255,141,0)" stroke="rgb(255,141,0)" stroke-width="1" opacity="0.5098039215686274" d="M 196.5 217 L 201 217.5 L 200 218.5 L 203.5 222 L 205 222.5 L 203.5 223 L 194 218.5 L 196.5 217 Z M 197 218 L 199 220 L 200 220 L 197 218 Z " /><path fill="rgb(255,141,0)" stroke="rgb(255,141,0)" stroke-width="1" opacity="0.5098039215686274" d="M 269.5 217 L 272 217.5 L 265.5 219 L 265.5 218 L 269.5 217 Z " /><path fill="rgb(255,141,0)" stroke="rgb(255,141,0)" stroke-width="1" opacity="0.5098039215686274" d="M 61.5 218 L 69 230.5 L 67 229.5 L 61 219.5 L 61.5 218 Z " /><path fill="rgb(255,141,0)" stroke="rgb(255,141,0)" stroke-width="1" opacity="0.5098039215686274" d="M 220.5 218 L 221 219.5 L 219.5 222 L 219 220.5 L 220.5 218 Z " /><path fill="rgb(255,141,0)" stroke="rgb(255,141,0)" stroke-width="1" opacity="0.5098039215686274" d="M 261.5 219 L 264 219.5 L 254.5 222 L 254.5 221 L 261.5 219 Z " /><path fill="rgb(255,141,0)" stroke="rgb(255,141,0)" stroke-width="1" opacity="0.5098039215686274" d="M 282.5 219 L 283 222 L 275 221.5 L 282 221 L 282.5 219 Z " /><path fill="rgb(255,141,0)" stroke="rgb(255,141,0)" stroke-width="1" opacity="0.5098039215686274" d="M 299.5 220 L 300 221.5 L 299 224 L 290.5 231 L 292 228.5 Q 291.3 226.3 293.5 227 L 299.5 220 Z " /><path fill="rgb(255,141,0)" stroke="rgb(255,141,0)" stroke-width="1" opacity="0.5098039215686274" d="M 170.5 221 L 182 224.5 L 178.5 225 L 170.5 222 L 170.5 221 Z " /><path fill="rgb(255,141,0)" stroke="rgb(255,141,0)" stroke-width="1" opacity="0.5098039215686274" d="M 3.5 222 L 5 229.5 L 4 230.5 L 3.5 269 L 3.5 222 Z " /><path fill="rgb(255,141,0)" stroke="rgb(255,141,0)" stroke-width="1" opacity="0.5098039215686274" d="M 167.5 222 L 168 223.5 L 166 229 L 199 228.5 L 187 222.5 L 188.5 223 L 203 229.5 L 164.5 230 L 165 228.5 L 167.5 222 Z " /><path fill="rgb(255,141,0)" stroke="rgb(255,141,0)" stroke-width="1" opacity="0.5098039215686274" d="M 266.5 222 L 273 222.5 L 266.5 223 L 266.5 222 Z " /><path fill="rgb(255,141,0)" stroke="rgb(255,141,0)" stroke-width="1" opacity="0.5098039215686274" d="M 185.5 223 L 186 224.5 L 183.5 226 L 183.5 225 Q 186 225.7 185.5 223 Z " /><path fill="rgb(255,141,0)" stroke="rgb(255,141,0)" stroke-width="1" opacity="0.5098039215686274" d="M 256.5 223 L 264 223.5 L 256.5 224 L 256.5 223 Z " /><path fill="rgb(255,141,0)" stroke="rgb(255,141,0)" stroke-width="1" opacity="0.5098039215686274" d="M 233.5 225 L 239 225.5 L 233.5 226 L 233.5 225 Z " /><path fill="rgb(255,141,0)" stroke="rgb(255,141,0)" stroke-width="1" opacity="0.5098039215686274" d="M 282.5 225 L 288 225.5 L 283.5 227 L 282.5 225 Z " /><path fill="rgb(255,141,0)" stroke="rgb(255,141,0)" stroke-width="1" opacity="0.5098039215686274" d="M 272.5 226 L 279.5 226 L 280 227.5 L 279.5 230 L 278.5 227 L 272.5 227 L 272.5 226 Z " /><path fill="rgb(255,141,0)" stroke="rgb(255,141,0)" stroke-width="1" opacity="0.5098039215686274" d="M 340.5 226 L 341 230 L 320 229.5 L 340 229 L 340.5 226 Z " /><path fill="rgb(255,141,0)" stroke="rgb(255,141,0)" stroke-width="1" opacity="0.5098039215686274" d="M 397.5 226 L 399 228.5 L 399 260.5 L 398 260.5 L 398 231.5 Q 395.6 230.2 397.5 226 Z " /><path fill="rgb(255,141,0)" stroke="rgb(255,141,0)" stroke-width="1" opacity="0.5098039215686274" d="M 260.5 227 L 270 227.5 L 261 228.5 L 272 229.5 L 235.5 230 L 234.5 231 L 235.5 229 L 247.5 229 L 248.5 228 L 259.5 228 L 260.5 227 Z " /><path fill="rgb(255,141,0)" stroke="rgb(255,141,0)" stroke-width="1" opacity="0.5098039215686274" d="M 346.5 227 L 347 229.5 L 346 229.5 L 346.5 227 Z " /><path fill="rgb(255,141,0)" stroke="rgb(255,141,0)" stroke-width="1" opacity="0.5098039215686274" d="M 33.5 229 L 59.5 229 L 62 231.5 L 59.5 230 L 33.5 230 L 33.5 229 Z " /><path fill="rgb(255,141,0)" stroke="rgb(255,141,0)" stroke-width="1" opacity="0.5098039215686274" d="M 221.5 230 L 223 230.5 L 220.5 232 L 221.5 230 Z " /><path fill="rgb(255,141,0)" stroke="rgb(255,141,0)" stroke-width="1" opacity="0.5098039215686274" d="M 399.5 265 L 400 278.5 L 399 278.5 L 399.5 265 Z " /><path fill="rgb(255,141,0)" stroke="rgb(255,141,0)" stroke-width="1" opacity="0.5098039215686274" d="M 2.5 275 L 3 291.5 L 2 291.5 L 2.5 275 Z " /><path fill="rgb(255,141,0)" stroke="rgb(255,141,0)" stroke-width="1" opacity="0.5098039215686274" d="M 399.5 291 L 400 294.5 L 396.5 299 L 391.5 300 L 391.5 299 Q 396.6 299.6 398 296.5 L 399.5 291 Z " /><path fill="rgb(255,141,0)" stroke="rgb(255,141,0)" stroke-width="1" opacity="0.5098039215686274" d="M 3.5 293 L 6.5 297 L 9 297.5 L 6.5 298 L 3 294.5 L 3.5 293 Z " /><path fill="rgb(255,141,0)" stroke="rgb(255,141,0)" stroke-width="1" opacity="0.5098039215686274" d="M 40.5 297 L 164 297.5 L 40.5 298 L 40.5 297 Z " /><path fill="rgb(255,141,0)" stroke="rgb(255,141,0)" stroke-width="1" opacity="0.5098039215686274" d="M 10.5 298 L 33 298.5 L 10.5 299 L 10.5 298 Z " /><path fill="rgb(255,141,0)" stroke="rgb(255,141,0)" stroke-width="1" opacity="0.5098039215686274" d="M 251.5 298 L 357 298.5 L 251.5 299 L 251.5 298 Z " /><path fill="rgb(255,141,0)" stroke="rgb(255,141,0)" stroke-width="1" opacity="0.5098039215686274" d="M 363.5 299 L 382 299.5 L 363.5 300 L 363.5 299 Z " /><path fill="rgb(254,135,0)" stroke="rgb(254,135,0)" stroke-width="1" opacity="0.996078431372549" d="M 362.5 249 L 364.5 252 L 362.5 249 Z " /><path fill="rgb(254,135,0)" stroke="rgb(254,135,0)" stroke-width="1" opacity="0.996078431372549" d="M 323.5 251 L 322.5 253 L 323.5 251 Z " /><path fill="rgb(254,135,0)" stroke="rgb(254,135,0)" stroke-width="1" opacity="0.996078431372549" d="M 136.5 252 L 135.5 254 L 136.5 252 Z " /><path fill="rgb(254,135,0)" stroke="rgb(254,135,0)" stroke-width="1" opacity="0.996078431372549" d="M 89.5 261 L 90.5 262 L 119 262.5 L 90.5 263 L 89.5 261 Z " /><path fill="rgb(254,135,0)" stroke="rgb(254,135,0)" stroke-width="1" opacity="0.996078431372549" d="M 41.5 262 L 64 262.5 L 41.5 263 L 41.5 262 Z " /><path fill="rgb(254,135,0)" stroke="rgb(254,135,0)" stroke-width="1" opacity="0.996078431372549" d="M 231.5 262 L 255 262.5 L 231.5 263 L 231.5 262 Z " /><path fill="rgb(254,135,0)" stroke="rgb(254,135,0)" stroke-width="1" opacity="0.996078431372549" d="M 70.5 265 L 71.5 269 Q 67 267 70.5 265 Z " /><path fill="rgb(254,135,0)" stroke="rgb(254,135,0)" stroke-width="1" opacity="0.996078431372549" d="M 261.5 265 L 261.5 268 Q 258.5 266.5 261.5 265 Z " /><path fill="rgb(254,135,0)" stroke="rgb(254,135,0)" stroke-width="1" opacity="0.996078431372549" d="M 303.5 268 L 302.5 270 L 279 269.5 L 302.5 269 L 303.5 268 Z " /><path fill="rgb(254,135,0)" stroke="rgb(254,135,0)" stroke-width="1" opacity="0.996078431372549" d="M 168.5 277 L 169 279.5 L 168 279.5 L 168.5 277 Z " /><path fill="rgb(254,135,0)" stroke="rgb(254,135,0)" stroke-width="1" opacity="0.996078431372549" d="M 316.5 277 L 317 279.5 L 316 279.5 L 316.5 277 Z " /><path fill="rgb(254,135,0)" stroke="rgb(254,135,0)" stroke-width="1" opacity="0.996078431372549" d="M 286.5 278 L 291.5 284 L 286.5 278 Z " /><path fill="rgb(254,135,0)" stroke="rgb(254,135,0)" stroke-width="1" opacity="0.996078431372549" d="M 69.5 280 L 68.5 282 L 69.5 280 Z " /><path fill="rgb(254,135,0)" stroke="rgb(254,135,0)" stroke-width="1" opacity="0.996078431372549" d="M 260.5 280 L 259.5 282 L 260.5 280 Z " /><path fill="rgb(254,135,0)" stroke="rgb(254,135,0)" stroke-width="1" opacity="0.996078431372549" d="M 169.5 281 L 171.5 284 L 169.5 281 Z " /><path fill="rgb(254,135,0)" stroke="rgb(254,135,0)" stroke-width="1" opacity="0.996078431372549" d="M 33.5 284 L 63 284.5 L 33.5 285 L 33.5 284 Z " /><path fill="rgb(254,135,0)" stroke="rgb(254,135,0)" stroke-width="1" opacity="0.996078431372549" d="M 82.5 284 L 114 284.5 L 82.5 285 L 82.5 284 Z " /><path fill="rgb(254,135,0)" stroke="rgb(254,135,0)" stroke-width="1" opacity="0.996078431372549" d="M 120.5 284 L 128 284.5 L 120.5 285 L 120.5 284 Z " /><path fill="rgb(254,135,0)" stroke="rgb(254,135,0)" stroke-width="1" opacity="0.996078431372549" d="M 154.5 284 L 162 284.5 L 154.5 285 L 154.5 284 Z " /><path fill="rgb(254,135,0)" stroke="rgb(254,135,0)" stroke-width="1" opacity="0.996078431372549" d="M 174.5 284 L 204 284.5 L 174.5 285 L 174.5 284 Z " /><path fill="rgb(254,135,0)" stroke="rgb(254,135,0)" stroke-width="1" opacity="0.996078431372549" d="M 224.5 284 L 254 284.5 L 224.5 285 L 224.5 284 Z " /><path fill="rgb(254,135,0)" stroke="rgb(254,135,0)" stroke-width="1" opacity="0.996078431372549" d="M 266.5 284 L 274 284.5 L 266.5 285 L 266.5 284 Z " /><path fill="rgb(254,135,0)" stroke="rgb(254,135,0)" stroke-width="1" opacity="0.996078431372549" d="M 293.5 284 L 304 284.5 L 293.5 285 L 293.5 284 Z " /><path fill="rgb(254,135,0)" stroke="rgb(254,135,0)" stroke-width="1" opacity="0.996078431372549" d="M 322.5 284 L 352 284.5 L 322.5 285 L 322.5 284 Z " /><path fill="rgb(254,135,0)" stroke="rgb(254,135,0)" stroke-width="1" opacity="0.996078431372549" d="M 386.5 299 L 389 299.5 L 386.5 300 L 386.5 299 Z " /><path fill="rgb(4,0,0)" stroke="rgb(4,0,0)" stroke-width="1" opacity="1" d="M 40.5 248 L 69.5 248 L 75 251.5 L 76 255.5 L 75 260.5 L 71.5 265 L 69 266.5 Q 73.3 267.8 72 274.5 L 71 278.5 L 66.5 283 L 64.5 284 L 30.5 284 Q 26.1 282.4 27 275.5 L 29 270.5 L 31 257.5 L 34.5 251 L 40.5 248 Z M 41 256 L 40 262 L 42 263 L 64 263 L 66 260 L 66 256 L 41 256 Z M 38 270 L 37 273 Q 36 277 38 277 L 62 277 L 63 274 L 63 270 L 38 270 Z " /><path fill="rgb(4,0,0)" stroke="rgb(4,0,0)" stroke-width="1" opacity="1" d="M 90.5 248 L 121.5 248 Q 122.5 248 122 252.5 L 119.5 256 L 91.5 256 L 90 257.5 L 89 261.5 L 90.5 263 L 119 263 L 118 270 L 88.5 270 L 87 271.5 L 86 277 L 115.5 277 L 116 280.5 L 115 284 L 80.5 284 L 77 280.5 L 77 274.5 L 81 256.5 L 85.5 250 L 90.5 248 Z " /><path fill="rgb(4,0,0)" stroke="rgb(4,0,0)" stroke-width="1" opacity="1" d="M 145.5 248 L 168.5 248 L 170 249.5 L 163 284 L 154 284 L 154 279.5 L 157 270.5 L 159 256 L 143.5 256 L 143 257.5 L 129 284 L 119 283.5 L 134 255.5 L 139.5 250 L 145.5 248 Z " /><path fill="rgb(4,0,0)" stroke="rgb(4,0,0)" stroke-width="1" opacity="1" d="M 182.5 248 L 211.5 248 L 216 250 Q 217.8 252.4 217 258.5 Q 213.5 266.5 213 277.5 L 209.5 282 L 206.5 284 L 172.5 284 Q 167.3 282.3 169 273.5 L 171 268.5 L 173 255.5 L 177.5 250 L 182.5 248 Z M 184 256 L 182 258 L 178 276 L 179 277 L 203 277 L 204 276 L 206 263 L 208 258 L 208 256 L 184 256 Z " /><path fill="rgb(4,0,0)" stroke="rgb(4,0,0)" stroke-width="1" opacity="1" d="M 231.5 248 L 260.5 248 L 266 251.5 L 267 255.5 L 266 260.5 L 262.5 265 L 260 266.5 Q 264.3 267.8 263 274.5 L 262 278.5 L 257.5 283 L 255.5 284 L 221.5 284 Q 217.1 282.4 218 275.5 L 220 270.5 L 222 257.5 L 225.5 251 L 231.5 248 Z M 232 256 L 231 259 Q 230 263 232 263 L 255 263 L 257 260 L 257 256 L 232 256 Z M 229 270 L 228 273 Q 227 277 229 277 L 253 277 L 254 274 L 254 270 L 229 270 Z " /><path fill="rgb(4,0,0)" stroke="rgb(4,0,0)" stroke-width="1" opacity="1" d="M 280.5 248 L 309.5 248 L 315 251.5 L 316 255.5 L 313 269.5 L 309.5 275 Q 306 278 299 277.5 L 304 284 L 292.5 284 L 284.5 277 L 277.5 277 L 275 284 L 266 284 L 266 280.5 L 271 257.5 L 274.5 251 L 280.5 248 Z M 281 256 L 278 269 L 280 270 L 303 270 L 304 269 Q 303 262 306 260 L 306 256 L 281 256 Z " /><path fill="rgb(4,0,0)" stroke="rgb(4,0,0)" stroke-width="1" opacity="1" d="M 329.5 248 L 359.5 248 L 365 252.5 L 365 257.5 L 361 276.5 L 357.5 282 L 354.5 284 L 320.5 284 L 317 281.5 L 317 272.5 L 321 255.5 L 325.5 250 L 329.5 248 Z M 330 256 L 326 275 L 327 277 L 351 277 L 352 276 L 355 262 Q 356 256 355 256 L 330 256 Z " /><path fill="rgb(0,0,0)" stroke="rgb(0,0,0)" stroke-width="1" opacity="0" d="M 0 0 L 400 0 L 400 264.5 L 399 264.5 L 399 228.5 L 397.5 226 L 397 230 L 347.5 230 Q 346.5 230 347 225.5 L 348 224.5 L 348 209.5 L 344 196.5 L 333 179 L 331 179 Q 332.1 176.3 329.5 177 L 318.5 168 L 304.5 162 L 294.5 160 L 277.5 160 L 268 162 L 268 158 L 266.5 158 L 261 153.5 Q 263.8 152.4 263 149 Q 258.8 148 257.5 151 L 249 137.5 L 250 135 L 254 134 L 252 126.5 L 259.5 108 L 262 108 Q 261 105 264 106 L 264 103 L 265.5 103 L 266.5 104 L 275.5 104 L 291 95.5 L 290 91.5 Q 292.3 90.3 289.5 89 L 287.5 90 L 261.5 91 L 259 89.5 L 268 82.5 Q 267.3 80.3 269.5 81 L 273 77.5 L 274 61.5 Q 271.8 60.3 273 55.5 L 269 47.5 L 256.5 35 L 250 31.5 L 251 27 L 235.5 20 L 222.5 20 L 216.5 22 L 194.5 23 L 193.5 24 L 165.5 27 L 144.5 37 L 143 34 L 139 33 L 140 29.5 L 136 25.5 L 132.5 18 Q 110.9 19.4 100 31.5 L 93 42.5 L 93 54.5 L 97.5 62 L 104.5 61 L 111 68.5 L 113.5 74 L 121.5 74 L 130.5 77 L 136.5 70 L 147.5 69 L 151 76.5 L 151 80.5 L 154 87.5 L 156 99 L 139.5 109 L 138 106.5 L 140 101.5 L 139 99 L 120 96 L 116.5 90 Q 111.3 88.8 110 91.5 L 109 95.5 L 112 101.5 L 111 102.5 L 111 114.5 L 109 118 Q 115.1 119.7 117 116.5 L 117 103.5 L 118.5 103 L 124 106.5 Q 121.2 108.3 123 114.5 L 119.5 119 Q 115.5 122 107.5 121 L 98 116.5 L 95.5 113 Q 89.3 111.8 88 115.5 L 87 117.5 Q 90 119.5 89 125.5 L 88 126.5 L 88 140 L 85 141.5 L 86.5 144 Q 91.8 145.3 93 142.5 L 93 128.5 L 94.5 127 L 100 129 Q 99 136.3 102 140.5 Q 99 142.8 100 148 L 104 148 L 106 152 L 96.5 152 L 84.5 156 Q 70.9 162.4 62 173.5 L 53 191.5 Q 50.3 199.8 52 212.5 L 56 224.5 L 59 228.5 L 5 230 L 3.5 222 L 2 291.5 L 6.5 298 L 10.5 299 L 32.5 299 L 33.5 298 L 250.5 298 L 251.5 299 L 363 299.5 L 0 300 L 0 0 Z " /><path fill="rgb(0,0,0)" stroke="rgb(0,0,0)" stroke-width="1" opacity="0" d="M 115.5 30 L 109.5 37 L 110 35.5 L 111.5 33 L 114.5 31 L 115.5 30 Z " /><path fill="rgb(0,0,0)" stroke="rgb(0,0,0)" stroke-width="1" opacity="0" d="M 124.5 31 L 122.5 34 L 121 33.5 L 124.5 31 Z " /><path fill="rgb(0,0,0)" stroke="rgb(0,0,0)" stroke-width="1" opacity="0" d="M 131.5 33 L 130.5 35 L 125.5 37 L 126.5 35 L 131.5 33 Z " /><path fill="rgb(0,0,0)" stroke="rgb(0,0,0)" stroke-width="1" opacity="0" d="M 102.5 45 L 103 46.5 L 100.5 52 L 100 50.5 L 102.5 45 Z " /><path fill="rgb(0,0,0)" stroke="rgb(0,0,0)" stroke-width="1" opacity="0" d="M 193.5 79 L 195 79.5 L 185 85 L 184 80 L 192.5 80 L 193.5 79 Z " /><path fill="rgb(0,0,0)" stroke="rgb(0,0,0)" stroke-width="1" opacity="0" d="M 252.5 99 Q 255.5 100.5 254 106.5 L 246 129 Q 243.3 127.9 244 130.5 Q 242 135 233.5 133 L 231 131.5 L 252.5 99 Z " /><path fill="rgb(0,0,0)" stroke="rgb(0,0,0)" stroke-width="1" opacity="0" d="M 211.5 107 L 212 108.5 L 207 125.5 L 207 130 L 189 129 L 187 122.5 L 199.5 112 L 211.5 107 Z " /><path fill="rgb(0,0,0)" stroke="rgb(0,0,0)" stroke-width="1" opacity="0" d="M 141.5 119 L 140.5 121 L 141.5 119 Z " /><path fill="rgb(0,0,0)" stroke="rgb(0,0,0)" stroke-width="1" opacity="0" d="M 126.5 121 L 127 123 L 135 124.5 L 122.5 133 L 110.5 137 L 108 136 L 107 132.5 L 111.5 128 L 122.5 125 L 126.5 121 Z " /><path fill="rgb(0,0,0)" stroke="rgb(0,0,0)" stroke-width="1" opacity="0" d="M 154.5 135 L 166.5 135 L 168 136.5 L 175 156 Q 170.9 154.3 172 158.5 Q 169 159.5 170 164.5 L 170.5 166 L 151 142.5 L 151 138.5 L 152 136 L 154.5 135 Z " /><path fill="rgb(0,0,0)" stroke="rgb(0,0,0)" stroke-width="1" opacity="0" d="M 193.5 136 L 203 137 L 202 144.5 L 207.5 151 L 219 159 L 215 164.5 L 213 172.5 L 209 180.5 L 209 184 Q 206.3 185.1 207 182.5 L 201 165.5 L 198 147.5 L 193.5 136 Z " /><path fill="rgb(0,0,0)" stroke="rgb(0,0,0)" stroke-width="1" opacity="0" d="M 227.5 139 L 241 140 L 237.5 150 L 228 141.5 L 227.5 139 Z " /><path fill="rgb(0,0,0)" stroke="rgb(0,0,0)" stroke-width="1" opacity="0" d="M 136.5 140 L 137 141.5 L 134 148 L 129.5 146 L 127 153 L 120 152.5 L 128 146.5 L 130.5 143 L 136.5 140 Z " /><path fill="rgb(0,0,0)" stroke="rgb(0,0,0)" stroke-width="1" opacity="0" d="M 246.5 146 L 249 147.5 L 258 166.5 L 250.5 171 L 242 156.5 L 246.5 146 Z " /><path fill="rgb(0,0,0)" stroke="rgb(0,0,0)" stroke-width="1" opacity="0" d="M 142.5 154 L 149 162 Q 151.7 160.9 151 163.5 L 166 178.5 L 166 180 Q 168.7 178.9 168 181.5 L 183 196.5 L 183 198 Q 186 197 185 200 L 180 201 Q 181.8 205.9 175.5 204 L 170.5 207 L 169 194.5 L 166 185.5 L 154 167 L 140 157.5 L 142.5 154 Z " /><path fill="rgb(0,0,0)" stroke="rgb(0,0,0)" stroke-width="1" opacity="0" d="M 101.5 158 L 119.5 158 L 123 159 Q 121.7 162.7 127.5 161 L 127 162.5 L 112 198.5 L 107.5 206 L 106 206.5 L 106 212 L 114 212 L 114 207.5 L 136 164 Q 147.5 167.7 154 177.5 L 162 193.5 L 164 201.5 L 164 209 L 161 210.5 L 160 214.5 L 163 218.5 L 157.5 229 L 68 230 L 60 214.5 L 59 201.5 Q 61.8 199.8 60 193.5 L 64 183.5 L 76.5 169 Q 86.3 160.8 101.5 158 Z " /><path fill="rgb(0,0,0)" stroke="rgb(0,0,0)" stroke-width="1" opacity="0" d="M 283.5 165 L 293.5 165 L 304.5 168 Q 319.3 173.7 329 184.5 Q 336.2 192.3 340 203.5 Q 342.8 212.2 341 225.5 L 340 229 L 292.5 230 L 297.5 224 Q 299.8 224.8 299 222.5 L 300 221.5 L 300 211.5 L 296.5 208 L 290.5 207 L 289 205.5 L 270 174.5 L 269 169.5 L 273.5 167 L 283.5 165 Z " /><path fill="rgb(0,0,0)" stroke="rgb(0,0,0)" stroke-width="1" opacity="0" d="M 227 169 Q 229.7 167.9 229 170.5 L 229 172.5 L 225.5 182 L 224 179.5 L 227 169 Z " /><path fill="rgb(0,0,0)" stroke="rgb(0,0,0)" stroke-width="1" opacity="0" d="M 260.5 172 L 274 202.5 L 273 202.5 L 269.5 197 L 262 190.5 L 254 177.5 L 260 174 L 260.5 172 Z " /><path fill="rgb(0,0,0)" stroke="rgb(0,0,0)" stroke-width="1" opacity="0" d="M 234.5 178 L 238 183.5 L 233 189.5 L 226.5 206 L 226 204.5 L 234.5 178 Z " /><path fill="rgb(0,0,0)" stroke="rgb(0,0,0)" stroke-width="1" opacity="0" d="M 223.5 184 Q 226.1 183.2 225 186.5 L 222.5 193 Q 220.3 192.3 221 188.5 L 223.5 184 Z " /><path fill="rgb(0,0,0)" stroke="rgb(0,0,0)" stroke-width="1" opacity="0" d="M 273.5 188 L 285 205.5 L 281 206 L 281 203.5 L 273 189.5 L 273.5 188 Z " /><path fill="rgb(0,0,0)" stroke="rgb(0,0,0)" stroke-width="1" opacity="0" d="M 189.5 189 Q 191.8 188.3 191 190.5 L 189.5 189 Z " /><path fill="rgb(0,0,0)" stroke="rgb(0,0,0)" stroke-width="1" opacity="0" d="M 241.5 190 Q 247.1 194.9 249 203.5 L 246.5 206 L 235 206 L 236 199.5 L 241.5 190 Z " /><path fill="rgb(0,0,0)" stroke="rgb(0,0,0)" stroke-width="1" opacity="0" d="M 220.5 194 L 222 194.5 L 216.5 209 L 213 197.5 L 219 197 L 220.5 194 Z " /><path fill="rgb(0,0,0)" stroke="rgb(0,0,0)" stroke-width="1" opacity="0" d="M 224.5 209 L 226 210.5 L 226 224.5 L 224.5 224 Q 220 225 219 222.5 L 224.5 209 Z " /><path fill="rgb(0,0,0)" stroke="rgb(0,0,0)" stroke-width="1" opacity="0" d="M 234 209 L 243 210.5 L 233.5 218 L 233 212.5 L 234 209 Z " /><path fill="rgb(0,0,0)" stroke="rgb(0,0,0)" stroke-width="1" opacity="0" d="M 284 209 L 286 209.5 L 284 210.5 L 284 209 Z " /><path fill="rgb(0,0,0)" stroke="rgb(0,0,0)" stroke-width="1" opacity="0" d="M 275 210 Q 279.1 208.7 278 212 Q 273.9 213.3 275 210 Z " /><path fill="rgb(0,0,0)" stroke="rgb(0,0,0)" stroke-width="1" opacity="0" d="M 209.5 216 Q 213.9 214.5 213 217.5 L 211.5 220 L 208 217.5 L 209.5 216 Z " /><path fill="rgb(0,0,0)" stroke="rgb(0,0,0)" stroke-width="1" opacity="0" d="M 276.5 216 Q 281.9 214.1 281 217.5 L 282 221 L 250.5 224 L 250.5 223 L 276.5 216 Z " /><path fill="rgb(0,0,0)" stroke="rgb(0,0,0)" stroke-width="1" opacity="0" d="M 196.5 218 L 200 219.5 L 198.5 220 L 196.5 218 Z " /><path fill="rgb(0,0,0)" stroke="rgb(0,0,0)" stroke-width="1" opacity="0" d="M 168 221 L 184.5 226 L 186 223 L 199 228.5 L 166 229 L 168 221 Z " /><path fill="rgb(0,0,0)" stroke="rgb(0,0,0)" stroke-width="1" opacity="0" d="M 233.5 224 L 242 224.5 L 233.5 225 L 233.5 224 Z " /><path fill="rgb(0,0,0)" stroke="rgb(0,0,0)" stroke-width="1" opacity="0" d="M 280.5 226 L 283 226.5 L 280.5 227 L 280.5 226 Z " /><path fill="rgb(0,0,0)" stroke="rgb(0,0,0)" stroke-width="1" opacity="0" d="M 270.5 227 L 279 227.5 L 278.5 230 L 261 228.5 L 269.5 228 L 270.5 227 Z " /><path fill="rgb(0,0,0)" stroke="rgb(0,0,0)" stroke-width="1" opacity="0" d="M 399.5 295 L 400 300 L 395 299.5 L 399 296.5 L 399.5 295 Z " /><path fill="rgb(255,136,0)" stroke="rgb(255,136,0)" stroke-width="1" opacity="1" d="M 130.5 18 L 131.5 20 L 133 19.5 Q 134.3 26.7 139 30.5 L 138 34 Q 144 32 142 38 L 136 40.5 L 138.5 41 L 162.5 29 L 169.5 27 L 201.5 24 L 202.5 23 L 215.5 23 L 228.5 20 L 238.5 22 L 250 28.5 L 249 31.5 Q 260 38 268 47.5 L 271 52.5 L 273 60.5 L 273 74.5 L 269.5 80 L 258.5 89 L 251.5 89 L 249.5 88 L 247 89.5 L 268.5 92 L 269.5 91 L 284.5 91 L 289.5 90 L 289.5 91 L 287 91.5 L 290 93 L 286.5 98 L 275.5 103 L 265.5 103 L 263 102 Q 263.8 105.8 260.5 107 L 257 109.5 L 257 112.5 L 251 126.5 L 251 130 Q 254.7 128.8 253 134 L 249 135.5 L 248 138.5 L 256 152 L 259 152 Q 257.9 148.7 262 150 L 261 154.5 L 267 159.5 Q 265.2 165.2 271.5 163 L 276.5 161 L 296.5 161 Q 322.6 166.4 336 184.5 L 346 204.5 Q 348.8 213.2 347 226.5 L 346 230 L 396.5 230 L 398 231.5 L 398 260.5 L 399 261.5 L 400 290.5 L 396.5 298 L 389.5 300 L 386.5 299 L 382.5 300 L 381.5 299 L 357.5 299 L 356.5 298 L 40.5 297 L 39.5 298 L 9.5 298 L 4 294.5 L 3 292.5 L 3 269.5 L 4 268.5 L 4 230 L 60 229.5 L 53 212.5 L 53 194.5 Q 57.2 176.7 69.5 167 L 72.5 165 Q 84.9 152.9 108 151.5 L 101 147 Q 100.1 141.6 104 139.5 L 102 139 Q 100.1 136.3 101 129.5 L 99.5 128 L 94.5 126 L 92 129.5 L 92 143 L 86 142.5 L 88 140.5 L 88 129.5 L 90 121.5 L 88 116.5 Q 89.3 112.8 95.5 114 L 99.5 119 L 108.5 122 L 114.5 122 Q 120.3 120.8 123 116.5 L 125 105 L 122.5 105 L 116.5 101 L 116 117 L 110 116.5 L 112 114.5 L 112 98.5 Q 109.3 97.8 110 93.5 L 111 91 Q 116.4 89.5 118 92.5 L 120.5 97 L 136.5 99 L 139 101.5 L 136 108.5 L 143.5 110 L 143.5 109 L 141 108.5 L 154.5 100 Q 157.1 101.4 156.5 106 L 157 98.5 L 156 97.5 L 155 86.5 L 153 84.5 L 149 68 L 136.5 69 L 133 72.5 L 130.5 76 Q 125.1 72.9 116.5 73 L 114.5 74 L 112 69 Q 116.6 70.3 118 67.5 L 117.5 65 L 115.5 68 Q 111 69 110 66.5 L 109 64.5 L 114 61.5 L 113.5 60 L 107.5 63 L 106 60 Q 108.1 58.4 113.5 59 Q 115.3 61.7 117 57.5 L 118 55.5 L 116 55 L 114.5 58 L 111 56.5 L 116 54.5 L 112.5 53 Q 109 59 101.5 61 L 99.5 61 Q 96.2 62.1 97 59.5 L 94 54.5 L 93 46.5 Q 97.3 33.3 107.5 26 L 130.5 18 Z M 116 29 L 114 30 L 108 37 L 108 38 L 110 38 L 117 31 Q 118 28 116 29 Z M 123 30 L 120 35 Q 125 36 126 32 Q 127 29 125 30 L 123 30 Z M 129 33 L 126 35 Q 123 37 126 38 L 133 35 Q 134 31 129 33 Z M 119 36 L 117 39 L 119 38 L 119 36 Z M 134 41 L 132 43 L 134 43 L 134 50 L 131 48 L 124 50 L 132 50 L 135 55 L 136 49 L 136 42 L 134 41 Z M 124 43 L 122 45 L 126 46 L 129 46 L 124 43 Z M 131 43 L 130 45 L 132 44 L 131 43 Z M 103 44 L 99 51 Q 98 54 101 53 L 104 47 Q 105 43 103 44 Z M 113 44 L 112 47 L 113 47 L 113 44 Z M 121 45 L 120 47 L 122 46 L 121 45 Z M 115 51 L 114 53 L 117 53 L 115 51 Z M 121 51 L 117 54 L 128 56 L 134 56 L 122 53 L 122 52 L 121 51 Z M 109 53 L 107 56 L 109 55 L 109 53 Z M 125 57 L 123 59 L 119 58 L 118 60 Q 123 62 125 59 L 134 60 L 137 62 L 137 59 L 125 57 Z M 175 76 L 175 113 L 175 97 L 175 95 L 175 82 L 176 81 L 175 76 Z M 196 78 L 181 81 L 183 81 L 186 87 L 197 79 L 196 78 Z M 252 87 L 252 88 L 254 88 L 252 87 Z M 240 93 L 238 95 L 241 95 Q 242 92 240 93 Z M 251 98 L 251 101 L 243 111 L 239 120 Q 233 125 230 132 L 225 133 L 243 134 L 244 132 Q 243 129 246 130 L 250 122 L 251 116 L 255 107 L 255 102 L 259 102 L 251 98 Z M 214 105 L 214 106 L 216 106 L 214 105 Z M 212 106 L 200 111 L 187 120 L 186 123 L 188 129 Q 189 131 191 129 L 203 130 L 204 131 L 214 131 L 207 130 L 213 109 Q 214 105 212 106 Z M 155 107 L 153 110 L 155 109 L 155 107 Z M 145 110 L 145 111 L 149 111 L 145 110 Z M 152 110 L 149 112 Q 151 115 153 111 L 152 110 Z M 174 114 L 172 116 L 174 116 L 174 114 Z M 133 115 L 133 116 L 138 116 L 133 115 Z M 139 116 Q 138 118 142 118 L 136 123 L 132 122 L 130 123 L 128 118 L 126 121 L 121 125 Q 113 125 109 128 L 106 137 L 111 138 L 120 135 L 121 138 L 123 139 L 122 135 L 147 117 L 139 116 Z M 170 117 L 168 120 L 171 118 L 170 117 Z M 160 125 L 158 127 L 164 127 L 165 129 L 165 126 L 160 125 Z M 166 129 L 166 134 L 153 135 L 150 139 L 150 143 L 173 172 L 176 174 L 174 170 L 174 168 L 172 167 L 171 165 L 171 161 L 173 157 Q 177 155 176 159 L 177 159 L 166 129 Z M 191 130 L 190 133 L 198 151 L 199 162 L 203 175 L 199 176 L 199 177 L 204 176 L 209 188 L 209 184 L 216 165 Q 218 160 223 160 L 220 159 L 207 149 L 203 145 Q 202 139 204 137 L 207 137 L 194 135 L 191 130 Z M 215 131 L 215 132 L 225 132 L 215 131 Z M 208 137 L 208 138 L 220 138 L 208 137 Z M 139 138 L 130 143 L 127 143 L 125 143 L 127 146 L 118 153 L 128 154 L 129 147 L 133 149 L 134 151 L 140 139 L 139 138 Z M 221 138 L 221 139 Q 227 138 226 141 L 236 150 L 237 150 L 236 153 L 237 155 L 242 141 L 241 139 L 221 138 Z M 124 139 L 123 141 L 125 142 L 124 139 Z M 247 145 L 244 148 L 241 158 Q 240 160 243 159 L 251 172 L 258 168 L 260 173 L 253 177 L 249 182 L 253 179 Q 255 178 254 181 L 253 183 L 255 182 L 268 199 L 270 198 L 274 206 L 276 207 L 274 200 L 250 148 L 247 145 Z M 143 152 L 139 159 L 142 159 L 149 164 Q 159 172 165 186 L 169 200 L 169 207 L 171 208 Q 173 204 180 205 L 183 201 Q 185 200 184 203 L 186 203 L 186 199 L 171 184 Q 172 181 169 182 L 169 181 L 143 152 Z M 131 155 L 130 158 L 131 158 L 131 155 Z M 236 155 L 234 159 L 236 158 L 236 155 Z M 103 157 Q 87 160 77 168 Q 63 177 59 195 L 59 214 L 64 226 L 67 229 L 67 231 L 71 230 L 73 230 L 157 230 L 158 231 L 163 219 L 165 219 L 164 218 L 161 215 L 162 211 L 167 209 L 165 208 L 163 194 L 155 178 Q 149 169 140 164 L 138 161 L 113 208 L 113 211 L 107 211 L 107 208 L 112 201 L 129 162 L 129 160 L 123 160 L 123 158 Q 116 156 103 157 Z M 178 159 L 178 163 L 179 163 L 178 159 Z M 234 159 L 231 163 L 232 166 L 234 161 L 234 159 Z M 241 161 L 239 165 L 240 168 L 241 165 L 241 161 Z M 266 164 L 265 167 L 268 170 L 270 177 L 289 207 Q 287 209 282 209 L 285 212 L 290 208 L 297 209 L 300 215 L 299 222 L 292 227 L 291 230 L 340 230 L 341 231 L 342 226 Q 344 213 341 205 L 332 187 Q 318 169 291 164 L 278 165 L 269 168 L 266 164 Z M 228 165 L 224 175 L 223 182 L 225 183 L 222 183 L 220 189 L 221 194 L 220 193 L 218 197 L 215 196 Q 210 197 211 195 L 210 195 L 211 199 L 213 198 L 217 212 L 231 172 L 231 166 L 230 169 L 228 165 Z M 239 168 L 238 171 L 239 171 L 239 168 Z M 238 171 L 236 173 L 238 173 L 238 171 Z M 266 174 L 265 176 L 267 177 L 266 174 Z M 179 176 L 178 178 L 180 179 L 179 176 Z M 193 177 L 187 178 L 188 183 L 189 183 L 188 180 L 198 178 L 193 177 Z M 235 177 L 233 179 L 225 205 Q 224 209 228 207 L 231 196 L 239 184 L 235 177 Z M 268 177 Q 272 193 282 206 L 286 206 L 268 177 Z M 181 179 Q 179 182 182 181 L 181 179 Z M 183 181 L 182 183 L 184 184 L 183 181 Z M 190 183 L 190 187 Q 191 189 189 188 L 185 186 L 189 192 Q 193 194 189 196 L 192 196 Q 193 188 190 183 Z M 247 183 L 241 189 L 236 198 L 233 207 L 233 215 L 232 216 L 233 226 L 283 222 L 283 219 L 278 209 Q 273 207 274 212 L 274 213 Q 280 211 279 215 L 250 223 L 235 223 L 234 220 L 244 219 L 244 218 Q 238 217 237 219 L 234 219 L 242 214 L 245 210 L 235 209 L 236 207 L 248 207 L 250 204 L 243 189 Q 244 184 250 185 L 247 183 Z M 225 208 L 218 224 L 226 226 L 227 226 L 227 209 L 225 208 Z M 216 212 L 210 216 Q 205 215 206 218 L 212 221 L 216 214 L 216 212 Z M 265 214 L 265 215 L 268 215 L 265 214 Z M 259 215 L 259 216 L 263 216 L 259 215 Z M 254 216 L 254 217 L 258 217 L 254 216 Z M 197 217 L 194 219 L 203 222 L 200 219 L 201 218 L 197 217 Z M 168 220 L 168 222 L 165 229 L 165 230 L 203 230 L 189 223 L 187 223 Q 184 222 185 225 L 168 220 Z M 283 225 L 272 227 L 234 229 L 235 231 L 236 230 L 280 230 L 279 229 L 281 227 Q 286 228 288 226 L 283 225 Z M 40 248 L 36 250 L 31 257 L 27 276 L 27 281 L 34 285 L 63 285 L 69 282 L 72 276 Q 74 268 70 267 Q 76 263 76 253 L 71 248 L 40 248 Z M 90 248 L 87 249 L 81 256 L 77 275 Q 76 281 78 283 L 83 285 L 114 285 L 116 282 Q 116 277 116 277 L 87 277 L 87 272 L 89 270 L 118 270 L 119 268 L 119 262 L 91 262 Q 90 262 90 258 L 92 256 L 121 256 L 122 254 Q 123 248 122 248 L 90 248 Z M 145 248 L 137 252 L 119 284 Q 121 287 128 285 L 143 258 L 145 256 L 159 256 L 157 265 L 157 270 L 154 279 L 154 285 L 162 285 L 164 282 L 166 268 L 170 253 Q 170 248 170 248 L 145 248 Z M 182 248 L 175 251 L 173 255 L 168 278 L 169 282 L 175 285 L 204 285 L 209 283 L 213 278 L 215 265 L 217 260 L 217 252 L 213 248 L 182 248 Z M 231 248 L 227 250 L 222 257 L 218 276 L 218 281 L 225 285 L 254 285 L 260 282 L 263 275 Q 264 269 261 267 Q 267 263 267 253 L 262 248 L 231 248 Z M 280 248 L 276 250 L 271 257 L 268 275 L 266 280 L 266 285 L 274 285 L 278 277 L 285 277 L 294 285 L 304 285 L 304 283 L 299 278 L 309 276 L 313 271 L 316 253 L 311 248 L 280 248 Z M 330 248 L 324 251 L 321 255 L 316 278 L 317 282 L 323 285 L 352 285 L 357 283 L 361 277 L 363 264 L 365 259 L 365 252 L 360 248 L 330 248 Z " /><path fill="rgb(255,136,0)" stroke="rgb(255,136,0)" stroke-width="1" opacity="1" d="M 41 256 L 65.5 256 L 66 258.5 L 65 262 L 40.5 262 L 40 259.5 L 41 256 Z " /><path fill="rgb(255,136,0)" stroke="rgb(255,136,0)" stroke-width="1" opacity="1" d="M 183.5 256 L 206.5 256 Q 207.5 256 207 260.5 L 204 275.5 L 202.5 277 L 179.5 277 Q 178.4 276.9 179 271.5 L 182 257.5 L 183.5 256 Z " /><path fill="rgb(255,136,0)" stroke="rgb(255,136,0)" stroke-width="1" opacity="1" d="M 232 256 L 256.5 256 L 257 258.5 L 256 262 L 231.5 262 L 231 259.5 L 232 256 Z " /><path fill="rgb(255,136,0)" stroke="rgb(255,136,0)" stroke-width="1" opacity="1" d="M 281 256 L 305.5 256 L 306 258.5 L 304 267.5 L 302.5 269 L 278 268.5 L 281 256 Z " /><path fill="rgb(255,136,0)" stroke="rgb(255,136,0)" stroke-width="1" opacity="1" d="M 331.5 256 L 354.5 256 Q 355.5 256 355 260.5 L 351 277 L 327.5 277 L 326 275.5 L 329 265.5 L 329 260.5 L 331.5 256 Z " /><path fill="rgb(255,136,0)" stroke="rgb(255,136,0)" stroke-width="1" opacity="1" d="M 38 270 L 62.5 270 L 63 272.5 L 60.5 277 L 37.5 277 L 37 273.5 L 38 270 Z " /><path fill="rgb(255,136,0)" stroke="rgb(255,136,0)" stroke-width="1" opacity="1" d="M 229 270 L 253.5 270 L 254 272.5 L 251.5 277 L 228.5 277 L 228 273.5 L 229 270 Z " /></svg>